# xmcd CD database file
#
# Track frame offsets:
#	150
#	42317
#	52287
#	67039
#	80418
#	93022
#	109957
#	123599
#	140001
#	153442
#	166584
#	187674
#	201511
#	213975
#	228020
#	256995
#	267799
#	285902
#
# Disc length: 3999 seconds
#
# Revision: 1
# Processed by: cddbd v1.5.2PL0 Copyright (c) Steve Scherf et al.
# Submitted via: CDex 1.70beta2
#
DISCID=fa0f9d12
DTITLE=Erroll Garner - Erroll Garner CD2
DYEAR=2005
DGENRE=Jazz
TTITLE0=1-I Got Rhythm
TTITLE1=Lady Be Good
TTITLE2=3-Full Moon And Empty Arms
TTITLE3=I Can´t Get Started
TTITLE4=5-Sloe Gin Fizz
TTITLE5=6-It Could Happen To You
TTITLE6=7-Blue And Sentimental
TTITLE7=8-I´m In The Mood For Love
TTITLE8=9-Love Walked In
TTITLE9=10-Blue Room
TTITLE10=11-A Lick And A Promise
TTITLE11=12-Don´t Worry ´bout Me
TTITLE12=13-More Than You Know
TTITLE13=14-Everything Happens To Me
TTITLE14=15-He Pulled A Fast One (Part 1 and 2)
TTITLE15=16-Play, Piano, Play
TTITLE16=17-Opus 1
TTITLE17=18-Stompin´ At The Savoy
EXTD=YEAR: 2005
EXTT0=
EXTT1=
EXTT2=
EXTT3=
EXTT4=
EXTT5=
EXTT6=
EXTT7=
EXTT8=
EXTT9=
EXTT10=
EXTT11=
EXTT12=
EXTT13=
EXTT14=
EXTT15=
EXTT16=
EXTT17=
PLAYORDER=
